<svg xmlns="http://www.w3.org/2000/svg"><defs><symbol viewBox="0 0 24 24" id="battery-fill"><path fill="none" d="M0 0h24v24H0z"/><path d="M3 5h16a1 1 0 011 1v12a1 1 0 01-1 1H3a1 1 0 01-1-1V6a1 1 0 011-1zm18 4h2v6h-2V9z"/></symbol><symbol viewBox="0 0 24 24" id="battery-line"><path fill="none" d="M0 0h24v24H0z"/><path d="M4 7v10h14V7H4zM3 5h16a1 1 0 011 1v12a1 1 0 01-1 1H3a1 1 0 01-1-1V6a1 1 0 011-1zm18 4h2v6h-2V9z"/></symbol><symbol viewBox="0 0 24 24" id="battery-low-line"><path fill="none" d="M0 0h24v24H0z"/><path d="M4 7v10h14V7H4zM3 5h16a1 1 0 011 1v12a1 1 0 01-1 1H3a1 1 0 01-1-1V6a1 1 0 011-1zm2 3h4v8H5V8zm16 1h2v6h-2V9z"/></symbol><symbol viewBox="0 0 24 24" id="bluetooth-connect-fill"><path fill="none" d="M0 0h24v24H0z"/><path d="M14.341 12.03l4.343 4.343-5.656 5.656h-2v-6.686l-4.364 4.364-1.415-1.414 5.779-5.778v-.97l-5.779-5.78 1.415-1.414 4.364 4.364V2.029h2l5.656 5.657-4.343 4.343zm-1.313 1.514v5.657l2.828-2.828-2.828-2.829zm0-3.03l2.828-2.828-2.828-2.828v5.657zM19.5 13.5a1.5 1.5 0 110-3 1.5 1.5 0 010 3zm-13 0a1.5 1.5 0 110-3 1.5 1.5 0 010 3z"/></symbol><symbol viewBox="0 0 24 24" id="bluetooth-fill"><path fill="none" d="M0 0h24v24H0z"/><path d="M14.341 12.03l4.343 4.343-5.656 5.656h-2v-6.686l-4.364 4.364-1.415-1.414 5.779-5.778v-.97l-5.779-5.78 1.415-1.414 4.364 4.364V2.029h2l5.656 5.657-4.343 4.343zm-1.313 1.514v5.657l2.828-2.828-2.828-2.829zm0-3.03l2.828-2.828-2.828-2.828v5.657z"/></symbol><symbol viewBox="0 0 24 24" id="device-recover-fill"><path fill="none" d="M0 0h24v24H0z"/><path d="M19 2a1 1 0 011 1v18a1 1 0 01-1 1H5a1 1 0 01-1-1V3a1 1 0 011-1h14zm-7 5a5 5 0 10.955 9.909L12 15a3 3 0 010-6c1.598 0 3 1.34 3 3h-2.5l2.128 4.254A5 5 0 0012 7z"/></symbol><symbol viewBox="0 0 24 24" id="headphone-fill"><path fill="none" d="M0 0h24v24H0z"/><path d="M4 12h3a2 2 0 012 2v5a2 2 0 01-2 2H4a2 2 0 01-2-2v-7C2 6.477 6.477 2 12 2s10 4.477 10 10v7a2 2 0 01-2 2h-3a2 2 0 01-2-2v-5a2 2 0 012-2h3a8 8 0 10-16 0z"/></symbol><symbol viewBox="0 0 24 24" id="lock-fill"><path fill="none" d="M0 0h24v24H0z"/><path d="M19 10h1a1 1 0 011 1v10a1 1 0 01-1 1H4a1 1 0 01-1-1V11a1 1 0 011-1h1V9a7 7 0 1114 0v1zm-2 0V9A5 5 0 007 9v1h10zm-6 4v4h2v-4h-2z"/></symbol><symbol viewBox="0 0 24 24" id="lock-unlock-fill"><path fill="none" d="M0 0h24v24H0z"/><path d="M7 10h13a1 1 0 011 1v10a1 1 0 01-1 1H4a1 1 0 01-1-1V11a1 1 0 011-1h1V9a7 7 0 0113.262-3.131l-1.789.894A5 5 0 007 9v1zm3 5v2h4v-2h-4z"/></symbol><symbol viewBox="0 0 24 24" id="pause-circle-fill"><path fill="none" d="M0 0h24v24H0z"/><path d="M12 22C6.477 22 2 17.523 2 12S6.477 2 12 2s10 4.477 10 10-4.477 10-10 10zM9 9v6h2V9H9zm4 0v6h2V9h-2z"/></symbol><symbol viewBox="0 0 24 24" id="play-circle-fill"><path fill="none" d="M0 0h24v24H0z"/><path d="M12 22C6.477 22 2 17.523 2 12S6.477 2 12 2s10 4.477 10 10-4.477 10-10 10zM10.622 8.415a.4.4 0 00-.622.332v6.506a.4.4 0 00.622.332l4.879-3.252a.4.4 0 000-.666l-4.88-3.252z"/></symbol><symbol viewBox="0 0 24 24" id="signal-wifi-1-fill"><path fill="none" d="M0 0h24v24H0z"/><path d="M12 3c4.284 0 8.22 1.497 11.31 3.996L12 21 .69 6.997A17.917 17.917 0 0112 3zm0 2c-3.028 0-5.923.842-8.42 2.392l5.108 6.324A7.965 7.965 0 0112 13c1.181 0 2.303.256 3.312.716L20.42 7.39A15.928 15.928 0 0012 5z"/></symbol><symbol viewBox="0 0 24 24" id="signal-wifi-2-fill"><path fill="none" d="M0 0h24v24H0z"/><path d="M12 3c4.284 0 8.22 1.497 11.31 3.996L12 21 .69 6.997A17.917 17.917 0 0112 3zm0 2c-3.028 0-5.923.842-8.42 2.392l3.178 3.935A10.953 10.953 0 0112 10c1.898 0 3.683.48 5.241 1.327L20.42 7.39A15.928 15.928 0 0012 5z"/></symbol><symbol viewBox="0 0 24 24" id="signal-wifi-3-fill"><path fill="none" d="M0 0h24v24H0z"/><path d="M12 3c4.284 0 8.22 1.497 11.31 3.996L12 21 .69 6.997A17.917 17.917 0 0112 3zm0 2c-3.028 0-5.923.842-8.42 2.392l1.904 2.357C7.4 8.637 9.625 8 12 8s4.6.637 6.516 1.749L20.42 7.39A15.928 15.928 0 0012 5z"/></symbol><symbol viewBox="0 0 24 24" id="signal-wifi-fill"><path fill="none" d="M0 0h24v24H0z"/><path d="M12 3c4.284 0 8.22 1.497 11.31 3.996L12 21 .69 6.997A17.917 17.917 0 0112 3z"/></symbol><symbol viewBox="0 0 24 24" id="signal-wifi-line"><path fill="none" d="M0 0h24v24H0z"/><path d="M12 3c4.284 0 8.22 1.497 11.31 3.996L12 21 .69 6.997A17.917 17.917 0 0112 3zm0 2c-3.028 0-5.923.842-8.42 2.392L12 17.817 20.42 7.39A15.928 15.928 0 0012 5z"/></symbol><symbol viewBox="0 0 24 24" id="stop-circle-fill"><path fill="none" d="M0 0h24v24H0z"/><path d="M12 22C6.477 22 2 17.523 2 12S6.477 2 12 2s10 4.477 10 10-4.477 10-10 10zM9 9v6h6V9H9z"/></symbol></defs></svg>